<svg xmlns="http://www.w3.org/2000/svg" viewBox="0 0 400 300">
  <rect width="400" height="300" fill="#0a0a14"/>
  <rect x="100" y="70" width="70" height="90" rx="8" fill="#1a1a2e" stroke="#00f0ff" stroke-width="2"/>
  <polygon points="135,85 140,100 155,100 143,110 147,125 135,117 123,125 127,110 115,100 130,100" fill="#00f0ff"/>
  <rect x="230" y="70" width="70" height="90" rx="8" fill="#1a1a2e" stroke="#00f0ff" stroke-width="2"/>
  <polygon points="265,85 270,100 285,100 273,110 277,125 265,117 253,125 257,110 245,100 260,100" fill="#00f0ff"/>
  <rect x="100" y="190" width="70" height="90" rx="8" fill="#b537f2" opacity="0.3"/>
  <rect x="230" y="190" width="70" height="90" rx="8" fill="#b537f2" opacity="0.3"/>
</svg>