<svg xmlns="http://www.w3.org/2000/svg" viewBox="0 0 400 300">
  <rect width="400" height="300" fill="#0a0a14"/>
  <g transform="translate(60,80)">
    <rect x="0" y="0" width="38" height="32" rx="4" fill="#1a1a2e" stroke="#00f0ff" stroke-width="1"/>
    <rect x="44" y="0" width="38" height="32" rx="4" fill="#1a1a2e" stroke="#00f0ff" stroke-width="1"/>
    <rect x="88" y="0" width="38" height="32" rx="4" fill="#1a1a2e" stroke="#00f0ff" stroke-width="1"/>
    <rect x="132" y="0" width="38" height="32" rx="4" fill="#1a1a2e" stroke="#00f0ff" stroke-width="1"/>
    <rect x="176" y="0" width="38" height="32" rx="4" fill="#1a1a2e" stroke="#00f0ff" stroke-width="1"/>
    <rect x="220" y="0" width="38" height="32" rx="4" fill="#1a1a2e" stroke="#00f0ff" stroke-width="1"/>
    <rect x="264" y="0" width="38" height="32" rx="4" fill="#1a1a2e" stroke="#00f0ff" stroke-width="1"/>
    <rect x="308" y="0" width="38" height="32" rx="4" fill="#1a1a2e" stroke="#00f0ff" stroke-width="1"/>
    <rect x="22" y="40" width="38" height="32" rx="4" fill="#1a1a2e" stroke="#b537f2" stroke-width="1"/>
    <rect x="66" y="40" width="38" height="32" rx="4" fill="#1a1a2e" stroke="#b537f2" stroke-width="1"/>
    <rect x="110" y="40" width="38" height="32" rx="4" fill="#1a1a2e" stroke="#b537f2" stroke-width="1"/>
    <rect x="154" y="40" width="38" height="32" rx="4" fill="#1a1a2e" stroke="#b537f2" stroke-width="1"/>
    <rect x="198" y="40" width="38" height="32" rx="4" fill="#1a1a2e" stroke="#b537f2" stroke-width="1"/>
    <rect x="242" y="40" width="38" height="32" rx="4" fill="#1a1a2e" stroke="#b537f2" stroke-width="1"/>
    <rect x="286" y="40" width="38" height="32" rx="4" fill="#1a1a2e" stroke="#b537f2" stroke-width="1"/>
    <rect x="80" y="80" width="200" height="32" rx="4" fill="#1a1a2e" stroke="#ff2bd6" stroke-width="1"/>
  </g>
  <text x="200" y="250" text-anchor="middle" fill="#00ff88" font-family="monospace" font-size="22" font-weight="bold">85 WPM</text>
</svg>