<svg xmlns="http://www.w3.org/2000/svg" viewBox="0 0 400 300">
  <rect width="400" height="300" fill="#0a0a14"/>
  <g>
    <rect x="80" y="80" width="48" height="48" rx="4" fill="#00ff88"/>
    <rect x="136" y="80" width="48" height="48" rx="4" fill="#b537f2"/>
    <rect x="192" y="80" width="48" height="48" rx="4" fill="#1a1a2e" stroke="#333" stroke-width="1"/>
    <rect x="248" y="80" width="48" height="48" rx="4" fill="#1a1a2e" stroke="#333" stroke-width="1"/>
    <rect x="304" y="80" width="48" height="48" rx="4" fill="#00ff88"/>
    <text x="104" y="112" text-anchor="middle" fill="white" font-family="monospace" font-size="24" font-weight="bold">W</text>
    <text x="160" y="112" text-anchor="middle" fill="white" font-family="monospace" font-size="24" font-weight="bold">O</text>
    <text x="216" y="112" text-anchor="middle" fill="white" font-family="monospace" font-size="24" font-weight="bold">R</text>
    <text x="272" y="112" text-anchor="middle" fill="white" font-family="monospace" font-size="24" font-weight="bold">D</text>
    <text x="328" y="112" text-anchor="middle" fill="white" font-family="monospace" font-size="24" font-weight="bold">Y</text>
  </g>
  <g opacity="0.3">
    <rect x="80" y="140" width="48" height="48" rx="4" fill="#1a1a2e" stroke="#333" stroke-width="1"/>
    <rect x="136" y="140" width="48" height="48" rx="4" fill="#1a1a2e" stroke="#333" stroke-width="1"/>
    <rect x="192" y="140" width="48" height="48" rx="4" fill="#1a1a2e" stroke="#333" stroke-width="1"/>
    <rect x="248" y="140" width="48" height="48" rx="4" fill="#1a1a2e" stroke="#333" stroke-width="1"/>
    <rect x="304" y="140" width="48" height="48" rx="4" fill="#1a1a2e" stroke="#333" stroke-width="1"/>
  </g>
</svg>